<?xml version="1.0" encoding="UTF-8" standalone="no"?>
<svg
   xmlns:dc="http://purl.org/dc/elements/1.1/"
   xmlns:cc="http://creativecommons.org/ns#"
   xmlns:rdf="http://www.w3.org/1999/02/22-rdf-syntax-ns#"
   xmlns:svg="http://www.w3.org/2000/svg"
   xmlns="http://www.w3.org/2000/svg"
   xmlns:sodipodi="http://sodipodi.sourceforge.net/DTD/sodipodi-0.dtd"
   xmlns:inkscape="http://www.inkscape.org/namespaces/inkscape"
   viewBox="0 0 128 128"
   version="1.1"
   id="svg4534"
   sodipodi:docname="twemoji.svg"
   inkscape:version="0.92.4 (5da689c313, 2019-01-14)"
   width="128"
   height="128">
  <metadata
     id="metadata4540">
    <rdf:RDF>
      <cc:Work
         rdf:about="">
        <dc:format>image/svg+xml</dc:format>
        <dc:type
           rdf:resource="http://purl.org/dc/dcmitype/StillImage" />
        <dc:title></dc:title>
      </cc:Work>
    </rdf:RDF>
  </metadata>
  <defs
     id="defs4538" />
  <sodipodi:namedview
     pagecolor="#ffffff"
     bordercolor="#666666"
     borderopacity="1"
     objecttolerance="10"
     gridtolerance="10"
     guidetolerance="10"
     inkscape:pageopacity="0"
     inkscape:pageshadow="2"
     inkscape:window-width="1920"
     inkscape:window-height="1057"
     id="namedview4536"
     showgrid="false"
     inkscape:zoom="5.9583333"
     inkscape:cx="38.123161"
     inkscape:cy="63.319444"
     inkscape:window-x="-8"
     inkscape:window-y="-8"
     inkscape:window-maximized="1"
     inkscape:current-layer="svg4534" />
  <g
     id="g4544"
     transform="matrix(3.8787879,0,0,3.8787879,-5.8181822,-11.636364)">
    <path
       id="path4530"
       d="M 18,3 C 12.477,3 8,7.477 8,13 v 10 h 4 V 13 c 0,-3.313 2.686,-6 6,-6 3.314,0 6,2.687 6,6 v 10 h 4 V 13 C 28,7.477 23.523,3 18,3 Z"
       inkscape:connector-curvature="0"
       style="fill:#aab8c2" />
    <path
       id="path4532"
       d="m 31,32 c 0,2.209 -1.791,4 -4,4 H 9 C 6.791,36 5,34.209 5,32 V 20 c 0,-2.209 1.791,-4 4,-4 h 18 c 2.209,0 4,1.791 4,4 z"
       inkscape:connector-curvature="0"
       style="fill:#ffac33" />
  </g>
</svg>
